<?xml version="1.0" encoding="UTF-8"?>
<svg version="1.1" xmlns="http://www.w3.org/2000/svg" width="150" height="150">
<path d="M0 0 C2.61570645 1.71691745 4.78215226 3.80302612 7 6 C7.86625 6.825 8.7325 7.65 9.625 8.5 C11.37213058 10.33908482 12.97089852 12.16089604 14.5625 14.125 C16.61806922 16.54951754 18.48299618 18.13555272 21 20 C21 20.66 21 21.32 21 22 C21.66 22 22.32 22 23 22 C26.24771409 24.8516514 28.19109447 26.74642936 29 31 C24.38778016 33.85810432 20.45728032 35.90027263 14.97265625 34.76953125 C10.82830713 33.15282476 8.0990477 30.10390514 5 27 C3.73334 25.80172452 2.46495178 24.60527457 1.1953125 23.41015625 C-0.18381138 22.08752029 -1.56139938 20.76328113 -2.9375 19.4375 C-3.61304932 18.80054199 -4.28859863 18.16358398 -4.98461914 17.50732422 C-7.93742539 14.6030109 -9.77564283 12.72102572 -11.0234375 8.7109375 C-10.99398152 5.30386229 -10.06261758 3.67376353 -8 1 C-5.04206277 -0.47896861 -3.29779776 -0.4355582 0 0 Z " fill="#081FF1" transform="translate(67,53)"/>
<path d="M0 0 C2.43943003 1.71219254 4.37226189 3.80440563 6.375 6 C6.92027344 6.57234375 7.46554688 7.1446875 8.02734375 7.734375 C9.36559012 9.14305539 10.68474975 10.56982497 12 12 C11 15 11 15 9.2734375 16.16015625 C4.50864766 17.92034494 -1.30894017 18.16821202 -6.015625 16.125 C-9.02163069 13.90697638 -9.99987438 12.00044753 -11 8.4375 C-11 5.15145671 -10.98286089 3.57771915 -9 1 C-5.57399299 -0.14200234 -3.59184597 -0.48939994 0 0 Z " fill="#0A1FEE" transform="translate(55,69)"/>
<path d="M0 0 C2.03833424 1.2739589 4.03852126 2.61061923 6 4 C6 4.66 6 5.32 6 6 C6.66 6 7.32 6 8 6 C11.24771409 8.8516514 13.19109447 10.74642936 14 15 C9.39185395 17.85557986 5.4814636 19.86747336 0 18.796875 C-4.08959898 17.1674254 -6.95001959 14.08517249 -10 11 C-11.12921875 9.89011719 -11.12921875 9.89011719 -12.28125 8.7578125 C-14.2047644 6.85461691 -16.10942106 4.93583216 -18 3 C-16.328125 2.31640625 -16.328125 2.31640625 -14 2 C-11.421875 3.21484375 -11.421875 3.21484375 -8.75 4.9375 C-7.85796875 5.50339844 -6.9659375 6.06929688 -6.046875 6.65234375 C-5.37140625 7.09707031 -4.6959375 7.54179688 -4 8 C-3.67 7.01 -3.34 6.02 -3 5 C-2.38125 5.804375 -1.7625 6.60875 -1.125 7.4375 C0.74164041 10.03874519 0.74164041 10.03874519 3 11 C2.67 11.33 2.34 11.66 2 12 C2.66 12.33 3.32 12.66 4 13 C4.94607807 10.25038489 4.94607807 10.25038489 5 7 C2.64573501 4.22877725 2.64573501 4.22877725 0 2 C0 1.34 0 0.68 0 0 Z " fill="#071FF2" transform="translate(82,69)"/>
<path d="M0 0 C2.90398503 2.11912421 3.84245093 3.50634623 4.9375 6.9375 C5.01234171 10.60474398 4.31695843 12.18655047 2 15 C-1 15 -1 15 -3.69921875 12.59375 C-4.70302243 11.5700032 -5.69885649 10.5383946 -6.6875 9.5 C-7.19861328 8.97535156 -7.70972656 8.45070313 -8.23632812 7.91015625 C-9.49772708 6.61339096 -10.74977212 5.30753883 -12 4 C-7.74936535 -0.39232247 -6.1282197 -1.59333712 0 0 Z " fill="#0C20EE" transform="translate(101,64)"/>
<path d="M0 0 C2.32579101 3.48868651 2.41865457 4.89718519 2 9 C0.5 11.375 0.5 11.375 -1 13 C-4.45201639 11.52278578 -6.64961936 9.56205999 -9.25 6.875 C-9.95640625 6.15054688 -10.6628125 5.42609375 -11.390625 4.6796875 C-12.18726562 3.84824219 -12.18726562 3.84824219 -13 3 C-9.1518672 -2.68057699 -6.25409237 -2.27421541 0 0 Z " fill="#0F1997" transform="translate(89,52)"/>
<path d="M0 0 C2.43943003 1.71219254 4.37226189 3.80440563 6.375 6 C6.92027344 6.57234375 7.46554688 7.1446875 8.02734375 7.734375 C9.36559012 9.14305539 10.68474975 10.56982497 12 12 C11 15 11 15 9.2734375 16.16015625 C4.50864766 17.92034494 -1.30894017 18.16821202 -6.015625 16.125 C-9.02163069 13.90697638 -9.99987438 12.00044753 -11 8.4375 C-11 5.15145671 -10.98286089 3.57771915 -9 1 C-5.57399299 -0.14200234 -3.59184597 -0.48939994 0 0 Z M-7.9375 3.125 C-9.22848445 5.05788273 -9.22848445 5.05788273 -9.0625 7.875 C-7.70790145 11.85911337 -5.72146781 14.1392661 -2 16 C2.29477089 16.78602411 5.29629592 16.46913606 9 14 C8.67 12.68 8.34 11.36 8 10 C7.01 10 6.02 10 5 10 C4.87625 9.13375 4.87625 9.13375 4.75 8.25 C3.7436424 5.23092721 2.53463351 3.91810103 0 2 C-3.22920358 1.5386852 -5.09613641 1.47517598 -7.9375 3.125 Z " fill="#0F1C99" transform="translate(55,69)"/>
<path d="M0 0 C0.33 0.66 0.66 1.32 1 2 C1.928125 2.28875 2.85625 2.5775 3.8125 2.875 C7.18974227 4.06696786 8.68562449 5.32956672 11 8 C10.34 9.98 9.68 11.96 9 14 C6 13 6 13 5 12 C5 11.34 5 10.68 5 10 C4.34 9.67 3.68 9.34 3 9 C2.67 8.34 2.34 7.68 2 7 C1.67 7.66 1.34 8.32 1 9 C-1.475 8.01 -1.475 8.01 -4 7 C-3.67 5.35 -3.34 3.7 -3 2 C-2.01 2.33 -1.02 2.66 0 3 C0 2.01 0 1.02 0 0 Z " fill="#071FF4" transform="translate(77,68)"/>
<path d="M0 0 C2.6161393 1.71720157 4.77938652 3.80538902 7 6 C7.9075 6.845625 8.815 7.69125 9.75 8.5625 C11.9203867 10.91375226 13.47747427 13.19534735 15 16 C10.35291919 14.76989037 8.38806419 12.32546739 5.47265625 8.75390625 C2.77804916 5.54467924 0.5405549 3.21496115 -3.6875 2.625 C-6.18923519 2.79936747 -6.18923519 2.79936747 -8 5 C-7.67673447 8.59679066 -7.67673447 8.59679066 -7 12 C-6.01 12.33 -5.02 12.66 -4 13 C-3.67 14.65 -3.34 16.3 -3 18 C-9.57402673 13.15959389 -9.57402673 13.15959389 -11.125 8.9375 C-10.97598672 5.43568803 -10.12614404 3.75611264 -8 1 C-5.04206277 -0.47896861 -3.29779776 -0.4355582 0 0 Z " fill="#13218E" transform="translate(67,53)"/>
<path d="M0 0 C3 2 3 2 4 5 C4.99 3.35 5.98 1.7 7 0 C7.66 0.33 8.32 0.66 9 1 C9.625 3.0625 9.625 3.0625 10 5 C10.474375 4.175 10.94875 3.35 11.4375 2.5 C11.953125 1.675 12.46875 0.85 13 0 C13.33 0 13.66 0 14 0 C13.14285714 8.57142857 13.14285714 8.57142857 11 12 C8.48916886 10.74458443 8.12874554 9.49936512 7 7 C6.34 8.65 5.68 10.3 5 12 C2 10 2 10 1.26953125 7.6171875 C1.11871094 6.71226563 0.96789062 5.80734375 0.8125 4.875 C0.65394531 3.96492188 0.49539062 3.05484375 0.33203125 2.1171875 C0.22246094 1.41851562 0.11289063 0.71984375 0 0 Z " fill="#010101" transform="translate(76,91)"/>
<path d="M0 0 C3.34986771 1.16517138 4.78576185 2.13696994 6.875 5 C8.04897648 8.67845963 8.1737624 10.31284647 6.625 13.875 C6.0475 14.57625 5.47 15.2775 4.875 16 C3.885 16 2.895 16 1.875 16 C-0.3125 13.5 -0.3125 13.5 -2.125 11 C0.185 11.66 2.495 12.32 4.875 13 C4.215 11.35 3.555 9.7 2.875 8 C3.535 8 4.195 8 4.875 8 C4.875 6.68 4.875 5.36 4.875 4 C3.41682203 3.83197949 1.9584516 3.66562857 0.5 3.5 C-0.31210938 3.4071875 -1.12421875 3.314375 -1.9609375 3.21875 C-4.09412825 2.96647649 -4.09412825 2.96647649 -6.125 3 C-6.455 4.32 -6.785 5.64 -7.125 7 C-7.785 6.01 -8.445 5.02 -9.125 4 C-4.03409091 0 -4.03409091 0 0 0 Z " fill="#1021B6" transform="translate(98.125,63)"/>
<path d="M0 0 C2.03833424 1.2739589 4.03852126 2.61061923 6 4 C6 4.66 6 5.32 6 6 C6.66 6 7.32 6 8 6 C11.24771409 8.8516514 13.19109447 10.74642936 14 15 C9.39549924 17.85332095 5.50930473 19.82808737 0.03125 18.828125 C-4.00726105 17.18165511 -6.98333254 14.07282882 -10 11 C-7 11 -7 11 -4.25 13.5 C-1.7025984 15.73212913 -1.0867164 15.99070896 2.5 16.375 C5.70011488 16.03213055 8.84120516 15.61635021 12 15 C7.20497249 9.40032622 7.20497249 9.40032622 2.0625 4.125 C0 2 0 2 0 0 Z " fill="#0E199B" transform="translate(82,69)"/>
<path d="M0 0 C3.7602985 0.58107632 6.53035032 1.65199496 9.8125 3.5625 C10.60269531 4.01753906 11.39289063 4.47257812 12.20703125 4.94140625 C12.79871094 5.29074219 13.39039062 5.64007813 14 6 C14.33 5.01 14.66 4.02 15 3 C15.99 4.32 16.98 5.64 18 7 C17.67 7.66 17.34 8.32 17 9 C15.35 8.67 13.7 8.34 12 8 C11.67 8.66 11.34 9.32 11 10 C6.32751069 7.17477391 3.34003602 4.32239956 0 0 Z " fill="#0D21DB" transform="translate(64,71)"/>
<path d="M0 0 C3 1 3 1 4.1875 3.0625 C4.455625 3.701875 4.72375 4.34125 5 5 C5.33 3.68 5.66 2.36 6 1 C6.66 1 7.32 1 8 1 C8 4.3 8 7.6 8 11 C7.01 11 6.02 11 5 11 C4.34 10.01 3.68 9.02 3 8 C2.34 9.32 1.68 10.64 1 12 C0.67 12 0.34 12 0 12 C0 8.04 0 4.08 0 0 Z " fill="#020203" transform="translate(44,91)"/>
<path d="M0 0 C0.9075 0.53625 1.815 1.0725 2.75 1.625 C2.9375 4.5 2.9375 4.5 2.75 7.625 C1.76 8.285 0.77 8.945 -0.25 9.625 C-5.25 3.875 -5.25 3.875 -5.25 1.625 C-5.91 1.295 -6.57 0.965 -7.25 0.625 C-4.22502149 -1.58556122 -3.57040661 -1.51055664 0 0 Z " fill="#0E22E8" transform="translate(86.25,53.375)"/>
<path d="M0 0 C4.55555556 0.55555556 4.55555556 0.55555556 6 2 C6.04063832 3.66617115 6.042721 5.33388095 6 7 C3.6875 8.125 3.6875 8.125 1 9 C0.01 8.34 -0.98 7.68 -2 7 C-2.3125 4.5 -2.3125 4.5 -2 2 C-1.34 1.34 -0.68 0.68 0 0 Z " fill="#020202" transform="translate(55,94)"/>
<path d="M0 0 C0.66 0 1.32 0 2 0 C2.33 0.99 2.66 1.98 3 3 C5.01508358 3.73323796 5.01508358 3.73323796 7 4 C7.6875 6.3125 7.6875 6.3125 8 9 C6.875 10.8125 6.875 10.8125 5 12 C3.35 12 1.7 12 0 12 C0 8.04 0 4.08 0 0 Z M3 5 C2.67 6.32 2.34 7.64 2 9 C2.99 9.33 3.98 9.66 5 10 C5.33 8.68 5.66 7.36 6 6 C5.01 5.67 4.02 5.34 3 5 Z " fill="#010101" transform="translate(99,91)"/>
<path d="M0 0 C4.875 0.875 4.875 0.875 6 2 C6.04092937 4.33297433 6.04241723 6.66705225 6 9 C3.69 8.67 1.38 8.34 -1 8 C-1.125 2.25 -1.125 2.25 0 0 Z M1 5 C1.33 5.66 1.66 6.32 2 7 C2.66 6.34 3.32 5.68 4 5 C3.01 5 2.02 5 1 5 Z " fill="#020202" transform="translate(70,94)"/>
<path d="M0 0 C1.65 0.33 3.3 0.66 5 1 C5 2.98 5 4.96 5 7 C3.02 7.99 3.02 7.99 1 9 C-0.32 7.68 -1.64 6.36 -3 5 C-2.01 3.35 -1.02 1.7 0 0 Z M0 5 C0.66 5.66 1.32 6.32 2 7 C2.66 6.34 3.32 5.68 4 5 C2.68 5 1.36 5 0 5 Z " fill="#010101" transform="translate(93,94)"/>
<path d="M0 0 C2.04119788 1.61594832 4.04072937 3.2856382 6 5 C6 5.66 6 6.32 6 7 C1.5121566 8.75135352 -2.18087264 9.45463466 -7 9 C-8.70703125 7.48046875 -8.70703125 7.48046875 -10 6 C-9.30132812 6.02320312 -8.60265625 6.04640625 -7.8828125 6.0703125 C-6.51769531 6.09738281 -6.51769531 6.09738281 -5.125 6.125 C-4.22007813 6.14820312 -3.31515625 6.17140625 -2.3828125 6.1953125 C0.18806994 6.24324836 0.18806994 6.24324836 2 4 C1.01 3.01 0.02 2.02 -1 1 C-0.67 0.67 -0.34 0.34 0 0 Z " fill="#1124E9" transform="translate(88,77)"/>
<path d="M0 0 C-0.99 0.33 -1.98 0.66 -3 1 C-3 2.65 -3 4.3 -3 6 C-1.68 6.33 -0.36 6.66 1 7 C1.33 8.32 1.66 9.64 2 11 C-4.75 8.25 -4.75 8.25 -7 6 C-7.125 3.375 -7.125 3.375 -7 1 C-4.53721199 -0.231394 -2.7204945 -0.07159196 0 0 Z " fill="#0C1CCF" transform="translate(99,65)"/>
<path d="M0 0 C2.475 0.99 2.475 0.99 5 2 C5 1.34 5 0.68 5 0 C5.99 0.33 6.98 0.66 8 1 C7.649375 1.5775 7.29875 2.155 6.9375 2.75 C5.85082593 5.35801776 6.06934867 6.39417629 7 9 C6.01 8.34 5.02 7.68 4 7 C2.02 7.99 2.02 7.99 0 9 C0.185625 8.071875 0.37125 7.14375 0.5625 6.1875 C1.24123881 2.98656229 1.24123881 2.98656229 0 0 Z " fill="#020202" transform="translate(61,94)"/>
<path d="M0 0 C3.36389668 0.24917753 4.14041544 1.15841742 6.4375 3.75 C6.85257812 4.28367187 7.26765625 4.81734375 7.6953125 5.3671875 C9.61806745 7.77350957 11.79224355 9.8553223 14 12 C11 12 11 12 8.625 9.75 C7.325625 8.38875 7.325625 8.38875 6 7 C5.0925 6.29875 4.185 5.5975 3.25 4.875 C1 3 1 3 0 0 Z " fill="#0412AA" transform="translate(68,56)"/>
<path d="M0 0 C2.8125 0.875 2.8125 0.875 5.8125 2.875 C5.4825 3.535 5.1525 4.195 4.8125 4.875 C4.296875 4.545 3.78125 4.215 3.25 3.875 C0.03223488 2.55489123 -2.7445528 2.74257895 -6.1875 2.875 C-6.5175 4.195 -6.8475 5.515 -7.1875 6.875 C-7.8475 5.885 -8.5075 4.895 -9.1875 3.875 C-4.05337436 -0.15895586 -4.05337436 -0.15895586 0 0 Z " fill="#131D93" transform="translate(98.1875,63.125)"/>
<path d="M0 0 C1.7074998 1.28062485 3.37373596 2.61767557 5 4 C5 4.66 5 5.32 5 6 C7.475 6.99 7.475 6.99 10 8 C10 8.66 10 9.32 10 10 C6.625 9.3125 6.625 9.3125 3 8 C1.6875 5.5 1.6875 5.5 1 3 C0.34 2.34 -0.32 1.68 -1 1 C-0.67 0.67 -0.34 0.34 0 0 Z " fill="#0E26EE" transform="translate(72,61)"/>
<path d="M0 0 C-2.33214148 1.20628008 -4.49642139 2.1654738 -7 3 C-7.99 4.485 -7.99 4.485 -9 6 C-9.66 5.01 -10.32 4.02 -11 3 C-7.46647659 -0.87004945 -5.02196482 -1.22155901 0 0 Z " fill="#121D93" transform="translate(87,51)"/>
<path d="M0 0 C3.3 0.33 6.6 0.66 10 1 C10 1.66 10 2.32 10 3 C6.6875 3.1875 6.6875 3.1875 3 3 C2.01 2.01 1.02 1.02 0 0 Z " fill="#0B22E0" transform="translate(78,83)"/>
<path d="M0 0 C2.31 1.98 4.62 3.96 7 6 C6.67 7.32 6.34 8.64 6 10 C5.67 9.01 5.34 8.02 5 7 C4.01 6.67 3.02 6.34 2 6 C0.8125 2.9375 0.8125 2.9375 0 0 Z " fill="#0E1DB3" transform="translate(58,73)"/>
<path d="M0 0 C0.99 1.485 0.99 1.485 2 3 C2.99 3.33 3.98 3.66 5 4 C5.33 5.65 5.66 7.3 6 9 C1.3125 5.484375 1.3125 5.484375 0 4 C0 2.68 0 1.36 0 0 Z " fill="#0C1AB2" transform="translate(58,62)"/>
<path d="M0 0 C0.99 0.33 1.98 0.66 3 1 C2.67 2.32 2.34 3.64 2 5 C-0.31 5.33 -2.62 5.66 -5 6 C-1.25 4 -1.25 4 1 4 C0.67 2.68 0.34 1.36 0 0 Z " fill="#1526A2" transform="translate(93,80)"/>
<path d="M0 0 C2.9719385 1.12451727 5.33440687 2.22293791 8 4 C7.01 4.66 6.02 5.32 5 6 C3.35 4.02 1.7 2.04 0 0 Z " fill="#0E1A90" transform="translate(96,74)"/>
<path d="M0 0 C0.66 0 1.32 0 2 0 C2.268125 0.598125 2.53625 1.19625 2.8125 1.8125 C3.98493467 3.97224808 5.19369282 5.35790256 7 7 C3.76509224 6.44225728 2.02144994 5.62788492 0 3 C0 2.01 0 1.02 0 0 Z " fill="#0817AB" transform="translate(79,55)"/>
<path d="M0 0 C1.32 0.33 2.64 0.66 4 1 C4 1.66 4 2.32 4 3 C4.33 3.66 4.66 4.32 5 5 C4.01 5.33 3.02 5.66 2 6 C0 3 0 3 0 0 Z " fill="#061DEC" transform="translate(81,54)"/>
<path d="M0 0 C2.8125 -0.1875 2.8125 -0.1875 6 0 C6.99 0.99 7.98 1.98 9 3 C6.03 2.67 3.06 2.34 0 2 C0 1.34 0 0.68 0 0 Z " fill="#0D1994" transform="translate(61,53)"/>
<path d="" fill="#808080" transform="translate(0,0)"/>
</svg>
